G75*
%MOIN*%
%OFA0B0*%
%FSLAX25Y25*%
%IPPOS*%
%LPD*%
%AMOC8*
5,1,8,0,0,1.08239X$1,22.5*
%
%ADD10R,0.07087X0.06299*%
%ADD11R,0.06299X0.07087*%
%ADD12R,0.01575X0.01575*%
%ADD13OC8,0.04800*%
%ADD14R,0.02362X0.04724*%
%ADD15OC8,0.06600*%
%ADD16C,0.06600*%
%ADD17C,0.06000*%
%ADD18R,0.07098X0.06299*%
%ADD19R,0.06299X0.07098*%
%ADD20C,0.07400*%
%ADD21C,0.04800*%
%ADD22C,0.05400*%
%ADD23OC8,0.05400*%
%ADD24OC8,0.06000*%
%ADD25R,0.07600X0.07600*%
%ADD26C,0.07600*%
%ADD27R,0.03150X0.01969*%
%ADD28C,0.00500*%
%ADD29R,0.01969X0.04724*%
%ADD30R,0.01772X0.01063*%
%ADD31R,0.01063X0.01772*%
%ADD32R,0.04724X0.04724*%
%ADD33R,0.03543X0.07087*%
%ADD34R,0.02756X0.06299*%
%ADD35C,0.00591*%
%ADD36C,0.02362*%
%ADD37C,0.01500*%
%ADD38C,0.03543*%
%ADD39C,0.07600*%
%ADD40C,0.01600*%
D10*
X0274000Y0067626D03*
X0274000Y0078650D03*
X0304000Y0078650D03*
X0304000Y0067626D03*
X0324000Y0067626D03*
X0324000Y0078650D03*
X0309000Y0147626D03*
X0309000Y0158650D03*
D11*
X0135652Y0111288D03*
X0124628Y0111288D03*
X0124638Y0099308D03*
X0135662Y0099308D03*
X0135662Y0087338D03*
X0124638Y0087338D03*
X0124648Y0075378D03*
X0135672Y0075378D03*
X0135692Y0063418D03*
X0124668Y0063418D03*
X0104512Y0094138D03*
X0093488Y0094138D03*
X0093488Y0137138D03*
X0104512Y0137138D03*
X0123488Y0137138D03*
X0134512Y0137138D03*
X0134512Y0158138D03*
X0123488Y0158138D03*
X0104512Y0158138D03*
X0093488Y0158138D03*
D12*
X0251244Y0133138D03*
X0256756Y0133138D03*
X0276244Y0133138D03*
X0281756Y0133138D03*
D13*
X0243000Y0096138D03*
X0233000Y0096138D03*
D14*
X0291500Y0102114D03*
X0296500Y0102114D03*
X0301500Y0102114D03*
X0306500Y0102114D03*
X0311500Y0102114D03*
X0316500Y0102114D03*
X0321500Y0102114D03*
X0321500Y0124161D03*
X0316500Y0124161D03*
X0311500Y0124161D03*
X0306500Y0124161D03*
X0301500Y0124161D03*
X0296500Y0124161D03*
X0291500Y0124161D03*
D15*
X0346000Y0049138D03*
X0346000Y0039138D03*
D16*
X0216874Y0072138D03*
X0216874Y0082138D03*
D17*
X0056000Y0149138D02*
X0056000Y0155138D01*
X0046000Y0155138D02*
X0046000Y0149138D01*
X0187000Y0197138D02*
X0187000Y0203138D01*
X0197000Y0203138D02*
X0197000Y0197138D01*
X0207000Y0197138D02*
X0207000Y0203138D01*
X0217000Y0203138D02*
X0217000Y0197138D01*
X0227000Y0197138D02*
X0227000Y0203138D01*
X0237000Y0203138D02*
X0237000Y0197138D01*
X0247000Y0197138D02*
X0247000Y0203138D01*
X0257000Y0203138D02*
X0257000Y0197138D01*
D18*
X0222000Y0182736D03*
X0222000Y0171539D03*
X0204000Y0171539D03*
X0204000Y0182736D03*
X0279000Y0158736D03*
X0289000Y0158736D03*
X0299000Y0158736D03*
X0299000Y0147539D03*
X0289000Y0147539D03*
X0279000Y0147539D03*
X0274000Y0118736D03*
X0259000Y0118736D03*
X0259000Y0107539D03*
X0274000Y0107539D03*
X0264000Y0078736D03*
X0254000Y0078736D03*
X0244000Y0078736D03*
X0244000Y0067539D03*
X0254000Y0067539D03*
X0264000Y0067539D03*
X0284000Y0067539D03*
X0294000Y0067539D03*
X0294000Y0078736D03*
X0284000Y0078736D03*
X0314000Y0078736D03*
X0314000Y0067539D03*
X0334000Y0067539D03*
X0334000Y0078736D03*
X0349000Y0078736D03*
X0349000Y0067539D03*
X0326000Y0049736D03*
X0326000Y0038539D03*
X0329000Y0147539D03*
X0339000Y0147539D03*
X0349000Y0147539D03*
X0349000Y0158736D03*
X0339000Y0158736D03*
X0329000Y0158736D03*
X0319000Y0158736D03*
X0319000Y0147539D03*
D19*
X0338402Y0123138D03*
X0349598Y0123138D03*
X0349598Y0103138D03*
X0338402Y0103138D03*
X0101598Y0053138D03*
X0090402Y0053138D03*
X0092598Y0174138D03*
X0081402Y0174138D03*
X0080402Y0190138D03*
X0091598Y0190138D03*
D20*
X0088126Y0038138D03*
X0103874Y0038138D03*
D21*
X0143638Y0036943D02*
X0143638Y0041743D01*
X0153638Y0041743D02*
X0153638Y0036943D01*
X0163638Y0036943D02*
X0163638Y0041743D01*
X0173638Y0041743D02*
X0173638Y0036943D01*
X0183638Y0036943D02*
X0183638Y0041743D01*
X0193638Y0041743D02*
X0193638Y0036943D01*
X0203638Y0036943D02*
X0203638Y0041743D01*
X0213638Y0041743D02*
X0213638Y0036943D01*
X0297870Y0176785D02*
X0297870Y0181585D01*
X0307870Y0181585D02*
X0307870Y0176785D01*
X0317870Y0176785D02*
X0317870Y0181585D01*
X0327870Y0181585D02*
X0327870Y0176785D01*
X0337870Y0176785D02*
X0337870Y0181585D01*
X0347870Y0181585D02*
X0347870Y0176785D01*
X0347870Y0206785D02*
X0347870Y0211585D01*
X0337870Y0211585D02*
X0337870Y0206785D01*
X0327870Y0206785D02*
X0327870Y0211585D01*
X0317870Y0211585D02*
X0317870Y0206785D01*
X0307870Y0206785D02*
X0307870Y0211585D01*
X0297870Y0211585D02*
X0297870Y0206785D01*
X0284000Y0226738D02*
X0284000Y0231538D01*
X0274000Y0231538D02*
X0274000Y0226738D01*
X0264000Y0226738D02*
X0264000Y0231538D01*
X0254000Y0231538D02*
X0254000Y0226738D01*
X0244000Y0226738D02*
X0244000Y0231538D01*
X0234000Y0231538D02*
X0234000Y0226738D01*
X0224000Y0226738D02*
X0224000Y0231538D01*
X0214000Y0231538D02*
X0214000Y0226738D01*
X0200000Y0226738D02*
X0200000Y0231538D01*
X0190000Y0231538D02*
X0190000Y0226738D01*
X0180000Y0226738D02*
X0180000Y0231538D01*
X0170000Y0231538D02*
X0170000Y0226738D01*
X0160000Y0226738D02*
X0160000Y0231538D01*
X0150000Y0231538D02*
X0150000Y0226738D01*
X0140000Y0226738D02*
X0140000Y0231538D01*
X0130000Y0231538D02*
X0130000Y0226738D01*
X0120000Y0226738D02*
X0120000Y0231538D01*
X0110000Y0231538D02*
X0110000Y0226738D01*
D22*
X0313950Y0039188D03*
D23*
X0303950Y0039188D03*
X0293950Y0039188D03*
X0283950Y0039188D03*
X0273950Y0039188D03*
X0263950Y0039188D03*
X0253950Y0039188D03*
X0243950Y0039188D03*
X0233950Y0039188D03*
X0233950Y0049188D03*
X0243950Y0049188D03*
X0253950Y0049188D03*
X0263950Y0049188D03*
X0273950Y0049188D03*
X0283950Y0049188D03*
X0293950Y0049188D03*
X0303950Y0049188D03*
X0313950Y0049188D03*
D24*
X0145000Y0177138D03*
X0135000Y0177138D03*
X0125000Y0177138D03*
X0115000Y0177138D03*
X0115000Y0187138D03*
X0125000Y0187138D03*
X0135000Y0187138D03*
X0145000Y0187138D03*
D25*
X0040000Y0037138D03*
D26*
X0050000Y0037138D03*
X0060000Y0037138D03*
D27*
X0093094Y0109201D03*
X0093094Y0113138D03*
X0093094Y0117075D03*
X0104906Y0117075D03*
X0104906Y0113138D03*
X0104906Y0109201D03*
D28*
X0101953Y0109988D02*
X0100181Y0108217D01*
X0096244Y0108217D01*
X0096244Y0118059D01*
X0101953Y0118059D01*
X0101953Y0109988D01*
X0101784Y0109819D02*
X0096244Y0109819D01*
X0096244Y0109321D02*
X0101285Y0109321D01*
X0100787Y0108822D02*
X0096244Y0108822D01*
X0096244Y0108324D02*
X0100288Y0108324D01*
X0101953Y0110318D02*
X0096244Y0110318D01*
X0096244Y0110816D02*
X0101953Y0110816D01*
X0101953Y0111315D02*
X0096244Y0111315D01*
X0096244Y0111813D02*
X0101953Y0111813D01*
X0101953Y0112312D02*
X0096244Y0112312D01*
X0096244Y0112810D02*
X0101953Y0112810D01*
X0101953Y0113309D02*
X0096244Y0113309D01*
X0096244Y0113807D02*
X0101953Y0113807D01*
X0101953Y0114306D02*
X0096244Y0114306D01*
X0096244Y0114804D02*
X0101953Y0114804D01*
X0101953Y0115303D02*
X0096244Y0115303D01*
X0096244Y0115801D02*
X0101953Y0115801D01*
X0101953Y0116300D02*
X0096244Y0116300D01*
X0096244Y0116798D02*
X0101953Y0116798D01*
X0101953Y0117297D02*
X0096244Y0117297D01*
X0096244Y0117795D02*
X0101953Y0117795D01*
D29*
X0170618Y0139413D03*
X0175539Y0139413D03*
X0180461Y0139413D03*
X0185382Y0139413D03*
X0185382Y0148862D03*
X0180461Y0148862D03*
X0175539Y0148862D03*
X0170618Y0148862D03*
D30*
X0168677Y0103763D03*
X0168677Y0102070D03*
X0168677Y0100377D03*
X0168677Y0098684D03*
X0168677Y0096991D03*
X0168677Y0095298D03*
X0168677Y0093606D03*
X0168677Y0091913D03*
X0178323Y0091913D03*
X0178323Y0093606D03*
X0178323Y0095298D03*
X0178323Y0096991D03*
X0178323Y0098684D03*
X0178323Y0100377D03*
X0178323Y0102070D03*
X0178323Y0103763D03*
D31*
X0176039Y0103645D03*
X0174346Y0103645D03*
X0172654Y0103645D03*
X0170961Y0103645D03*
X0170961Y0092031D03*
X0172654Y0092031D03*
X0174346Y0092031D03*
X0176039Y0092031D03*
D32*
X0095638Y0211854D03*
X0038551Y0212248D03*
D33*
X0034614Y0250437D03*
X0095638Y0250437D03*
D34*
X0089339Y0211067D03*
X0089339Y0210673D03*
X0085008Y0210673D03*
X0085008Y0211067D03*
X0080677Y0211067D03*
X0080677Y0210673D03*
X0076346Y0210673D03*
X0076346Y0211067D03*
X0072016Y0211067D03*
X0072016Y0210673D03*
X0067685Y0210673D03*
X0067685Y0211067D03*
X0063354Y0211067D03*
X0063354Y0210673D03*
X0059024Y0210673D03*
X0059024Y0211067D03*
X0054693Y0211067D03*
X0054693Y0210673D03*
D35*
X0059024Y0210673D02*
X0059024Y0234161D01*
X0064000Y0239138D01*
X0208000Y0239138D01*
X0214000Y0229138D01*
X0224000Y0229138D02*
X0224000Y0236138D01*
X0221000Y0239138D01*
X0200000Y0229138D02*
X0200016Y0228728D01*
X0200016Y0206878D01*
X0206512Y0200382D01*
X0207000Y0200138D01*
X0197000Y0200138D02*
X0196472Y0200382D01*
X0190567Y0206287D01*
X0190567Y0228728D01*
X0190000Y0229138D01*
X0180528Y0228728D02*
X0180000Y0229138D01*
X0180528Y0228728D02*
X0180528Y0206287D01*
X0186433Y0200382D01*
X0187000Y0200138D01*
X0182890Y0196248D02*
X0182890Y0195657D01*
X0185843Y0192705D01*
X0219504Y0192705D01*
X0226591Y0199791D01*
X0227000Y0200138D01*
X0243717Y0187980D02*
X0178756Y0187980D01*
X0165764Y0174988D01*
X0163992Y0176760D01*
X0149228Y0176760D01*
X0149228Y0188571D01*
X0126197Y0211602D01*
X0096079Y0211602D01*
X0095638Y0211854D01*
X0095000Y0212492D01*
X0095000Y0220138D01*
X0092000Y0223138D01*
X0079000Y0223138D01*
X0076346Y0220484D01*
X0076346Y0210673D01*
X0072016Y0210673D02*
X0072016Y0233154D01*
X0074000Y0235138D01*
X0147000Y0235138D01*
X0150000Y0232138D01*
X0150000Y0229138D01*
X0182890Y0196248D01*
X0200016Y0186799D02*
X0181709Y0168492D01*
X0181709Y0152547D01*
X0185252Y0149004D01*
X0185382Y0148862D01*
X0180461Y0148862D02*
X0179937Y0148413D01*
X0174622Y0143098D01*
X0140961Y0143098D01*
X0135055Y0137193D01*
X0134512Y0137138D01*
X0123835Y0137193D02*
X0123488Y0137138D01*
X0123244Y0136602D01*
X0122063Y0136602D01*
X0107890Y0122429D01*
X0100803Y0129516D01*
X0088992Y0117705D01*
X0088992Y0090539D01*
X0090173Y0089358D01*
X0099622Y0089358D01*
X0104346Y0094083D01*
X0104512Y0094138D01*
X0104937Y0094673D01*
X0120291Y0094673D01*
X0120291Y0091720D01*
X0124425Y0087587D01*
X0124638Y0087338D01*
X0125016Y0086996D01*
X0125016Y0075776D01*
X0124648Y0075378D01*
X0125016Y0075185D01*
X0125016Y0063965D01*
X0124668Y0063418D01*
X0125016Y0063177D01*
X0125016Y0057272D01*
X0192929Y0057272D01*
X0192929Y0105500D01*
X0223441Y0136012D01*
X0223441Y0158650D01*
X0278559Y0158650D01*
X0279000Y0158736D01*
X0279150Y0159043D01*
X0288598Y0159043D01*
X0289000Y0158736D01*
X0290370Y0151957D02*
X0264976Y0151957D01*
X0211236Y0098217D01*
X0211236Y0062193D01*
X0233677Y0039752D01*
X0233950Y0039188D01*
X0250213Y0043295D02*
X0253756Y0039752D01*
X0253950Y0039188D01*
X0250213Y0043295D02*
X0250213Y0048020D01*
X0244307Y0053925D01*
X0244307Y0067508D01*
X0244000Y0067539D01*
X0239583Y0071642D02*
X0250213Y0071642D01*
X0253756Y0068098D01*
X0254000Y0067539D01*
X0256709Y0072823D02*
X0217732Y0072823D01*
X0217142Y0072232D01*
X0216874Y0072138D01*
X0212417Y0070461D02*
X0215370Y0067508D01*
X0235449Y0067508D01*
X0239583Y0071642D01*
X0244000Y0078736D02*
X0244307Y0078728D01*
X0245488Y0078728D01*
X0249622Y0074594D01*
X0279150Y0074594D01*
X0279150Y0082272D01*
X0280331Y0083453D01*
X0280331Y0084634D01*
X0269110Y0095854D01*
X0269110Y0110618D01*
X0270291Y0111799D01*
X0277969Y0111799D01*
X0287417Y0102350D01*
X0290961Y0102350D01*
X0291500Y0102114D01*
X0292732Y0098807D02*
X0308677Y0082862D01*
X0308677Y0075776D01*
X0313992Y0070461D01*
X0313992Y0068098D01*
X0314000Y0067539D01*
X0309268Y0070461D02*
X0309268Y0063965D01*
X0309858Y0063374D01*
X0318126Y0063374D01*
X0318717Y0063965D01*
X0318717Y0072232D01*
X0319307Y0072232D01*
X0318717Y0072232D02*
X0318717Y0074004D01*
X0313992Y0078728D01*
X0314000Y0078736D01*
X0313992Y0079319D01*
X0306906Y0086406D01*
X0306906Y0098807D01*
X0299819Y0098807D01*
X0299228Y0099398D01*
X0299228Y0104713D01*
X0301000Y0106484D01*
X0301000Y0123610D01*
X0301500Y0124161D01*
X0306315Y0124201D02*
X0306500Y0124161D01*
X0306315Y0124201D02*
X0306315Y0130697D01*
X0309268Y0130697D02*
X0309268Y0115933D01*
X0321079Y0104122D01*
X0321079Y0102350D01*
X0321500Y0102114D01*
X0321669Y0101760D01*
X0321669Y0091130D01*
X0333480Y0079319D01*
X0334000Y0078736D01*
X0334071Y0078728D01*
X0348835Y0078728D01*
X0349000Y0078736D01*
X0350606Y0082862D02*
X0352969Y0082862D01*
X0353559Y0082272D01*
X0353559Y0050382D01*
X0347063Y0043886D01*
X0339386Y0043886D01*
X0329937Y0034437D01*
X0289189Y0034437D01*
X0284465Y0039161D01*
X0283950Y0039188D01*
X0267929Y0043295D02*
X0264386Y0039752D01*
X0263950Y0039188D01*
X0267929Y0043295D02*
X0315173Y0043295D01*
X0319898Y0038571D01*
X0325803Y0038571D01*
X0326000Y0038539D01*
X0326394Y0049201D02*
X0326000Y0049736D01*
X0326394Y0049201D02*
X0345882Y0049201D01*
X0346000Y0049138D01*
X0334661Y0059831D02*
X0338795Y0063965D01*
X0338795Y0071642D01*
X0332890Y0071642D01*
X0329346Y0075185D01*
X0329346Y0081681D01*
X0319307Y0091720D01*
X0319307Y0104122D01*
X0317535Y0105894D01*
X0305134Y0105894D01*
X0301591Y0102350D01*
X0301500Y0102114D01*
X0306500Y0102114D02*
X0306906Y0101760D01*
X0306906Y0098807D01*
X0311039Y0097035D02*
X0311039Y0101760D01*
X0311500Y0102114D01*
X0316500Y0102114D02*
X0316945Y0101760D01*
X0316945Y0084043D01*
X0319307Y0081681D01*
X0319307Y0075185D01*
X0322260Y0072232D01*
X0329346Y0072232D01*
X0333480Y0068098D01*
X0334000Y0067539D01*
X0338795Y0071642D02*
X0345291Y0071642D01*
X0348835Y0068098D01*
X0349000Y0067539D01*
X0334661Y0059831D02*
X0301000Y0059831D01*
X0299228Y0061602D01*
X0299228Y0070461D01*
X0298047Y0071642D01*
X0292732Y0071642D01*
X0285646Y0078728D01*
X0284465Y0078728D01*
X0284000Y0078736D01*
X0287417Y0073413D02*
X0288598Y0073413D01*
X0293913Y0068098D01*
X0294000Y0067539D01*
X0299228Y0075185D02*
X0299228Y0089358D01*
X0293913Y0094673D02*
X0293913Y0079319D01*
X0294000Y0078736D01*
X0299228Y0075185D02*
X0303953Y0070461D01*
X0303953Y0068098D01*
X0304000Y0067626D01*
X0309268Y0070461D02*
X0304543Y0075185D01*
X0304543Y0078138D01*
X0304000Y0078650D01*
X0324000Y0078650D02*
X0324031Y0078728D01*
X0324031Y0084043D01*
X0324000Y0067626D02*
X0324031Y0067508D01*
X0324031Y0064555D01*
X0326394Y0062193D01*
X0350606Y0082862D02*
X0313992Y0119476D01*
X0313992Y0126563D01*
X0328756Y0141327D01*
X0328756Y0147232D01*
X0329000Y0147539D01*
X0330528Y0151957D02*
X0315173Y0151957D01*
X0313992Y0150776D01*
X0311630Y0153138D01*
X0294504Y0153138D01*
X0289189Y0147823D01*
X0289000Y0147539D01*
X0290370Y0151957D02*
X0296866Y0158453D01*
X0298638Y0158453D01*
X0299000Y0158736D01*
X0302772Y0151957D02*
X0295094Y0151957D01*
X0293913Y0150776D01*
X0293913Y0121248D01*
X0285646Y0112980D01*
X0269701Y0112980D01*
X0263795Y0107075D01*
X0263795Y0088768D01*
X0254346Y0079319D01*
X0254000Y0078736D01*
X0256709Y0072823D02*
X0261433Y0068098D01*
X0263795Y0068098D01*
X0264000Y0067539D01*
X0264386Y0067508D01*
X0273835Y0067508D01*
X0274000Y0067626D01*
X0279150Y0072823D02*
X0283874Y0068098D01*
X0284000Y0067539D01*
X0279150Y0072823D02*
X0279150Y0074594D01*
X0274425Y0078728D02*
X0274000Y0078650D01*
X0274425Y0078728D02*
X0274425Y0080500D01*
X0277969Y0084043D01*
X0273244Y0088177D02*
X0264386Y0079319D01*
X0264000Y0078736D01*
X0244000Y0078736D02*
X0243717Y0079319D01*
X0243717Y0085224D01*
X0233087Y0095854D01*
X0233000Y0096138D01*
X0243000Y0096138D02*
X0243126Y0096445D01*
X0253756Y0107075D01*
X0258480Y0107075D01*
X0259000Y0107539D01*
X0258480Y0118295D02*
X0250213Y0118295D01*
X0217142Y0085224D01*
X0217142Y0082272D01*
X0216874Y0082138D01*
X0212417Y0070461D02*
X0212417Y0097626D01*
X0250803Y0136012D01*
X0276787Y0136012D01*
X0279150Y0133650D01*
X0281512Y0133650D01*
X0281756Y0133138D01*
X0282102Y0133059D01*
X0286827Y0128335D01*
X0290961Y0124201D02*
X0282102Y0124201D01*
X0273244Y0133059D01*
X0257299Y0133059D01*
X0256756Y0133138D01*
X0255528Y0134831D02*
X0254346Y0133650D01*
X0251394Y0133650D01*
X0251244Y0133138D01*
X0255528Y0134831D02*
X0275016Y0134831D01*
X0276197Y0133650D01*
X0276244Y0133138D01*
X0276787Y0133059D01*
X0278559Y0131287D01*
X0278559Y0137193D02*
X0278559Y0147232D01*
X0279000Y0147539D01*
X0299000Y0147539D02*
X0299228Y0147232D01*
X0299228Y0140736D01*
X0309268Y0130697D01*
X0311500Y0124161D02*
X0311630Y0124201D01*
X0311630Y0141917D01*
X0313992Y0144280D01*
X0313992Y0150776D01*
X0315173Y0154319D02*
X0324622Y0154319D01*
X0328756Y0158453D01*
X0329000Y0158736D01*
X0329346Y0159043D01*
X0334661Y0164358D01*
X0351787Y0164358D01*
X0353559Y0162587D01*
X0353559Y0154909D01*
X0350606Y0151957D01*
X0345291Y0151957D01*
X0344110Y0150776D01*
X0344110Y0123610D01*
X0349425Y0123610D01*
X0349598Y0123138D01*
X0349425Y0123020D01*
X0349425Y0103531D01*
X0349598Y0103138D01*
X0338402Y0103138D02*
X0338205Y0103531D01*
X0338205Y0118295D01*
X0335843Y0120657D01*
X0338402Y0123138D01*
X0338205Y0123610D01*
X0334071Y0127744D01*
X0334071Y0150776D01*
X0338795Y0155500D01*
X0338795Y0158453D01*
X0339000Y0158736D01*
X0335252Y0163177D02*
X0333480Y0161406D01*
X0333480Y0154909D01*
X0330528Y0151957D01*
X0338795Y0147232D02*
X0339000Y0147539D01*
X0338795Y0147232D02*
X0338795Y0136602D01*
X0349000Y0147539D02*
X0349425Y0147823D01*
X0349425Y0149004D01*
X0354740Y0154319D01*
X0354740Y0163177D01*
X0344701Y0173217D01*
X0334071Y0173217D01*
X0328165Y0179122D01*
X0327870Y0179185D01*
X0311630Y0182665D02*
X0311630Y0175579D01*
X0307496Y0171445D01*
X0233677Y0171445D01*
X0165764Y0103531D01*
X0165764Y0098807D01*
X0168126Y0098807D01*
X0168677Y0098684D01*
X0168677Y0096991D02*
X0168126Y0097035D01*
X0167535Y0097035D01*
X0166945Y0096445D01*
X0138598Y0096445D01*
X0135662Y0099308D01*
X0136236Y0098807D01*
X0138598Y0096445D01*
X0136236Y0094083D01*
X0136236Y0087587D01*
X0135662Y0087338D01*
X0135646Y0086996D01*
X0131512Y0082862D01*
X0131512Y0071051D01*
X0135646Y0066917D01*
X0135646Y0063965D01*
X0135692Y0063418D01*
X0132102Y0058650D02*
X0130331Y0060421D01*
X0130331Y0109437D01*
X0130331Y0114161D01*
X0152181Y0136012D01*
X0176984Y0136012D01*
X0178165Y0137193D01*
X0182299Y0133059D01*
X0184071Y0133059D01*
X0188795Y0137783D01*
X0188795Y0164358D01*
X0200016Y0175579D01*
X0205331Y0175579D01*
X0212417Y0182665D01*
X0221866Y0182665D01*
X0222000Y0182736D01*
X0222457Y0172035D02*
X0222000Y0171539D01*
X0221866Y0171445D01*
X0204150Y0171445D01*
X0204000Y0171539D01*
X0203559Y0180894D02*
X0187614Y0164949D01*
X0187614Y0141327D01*
X0185843Y0139555D01*
X0185382Y0139413D01*
X0185252Y0138965D01*
X0182890Y0136602D01*
X0182890Y0135421D01*
X0179937Y0138965D02*
X0180461Y0139413D01*
X0179937Y0138965D02*
X0178165Y0137193D01*
X0172260Y0145461D02*
X0169307Y0145461D01*
X0165764Y0149004D01*
X0165764Y0174988D01*
X0161039Y0179122D02*
X0111433Y0228728D01*
X0110252Y0228728D01*
X0110000Y0229138D01*
X0089339Y0218799D02*
X0089000Y0219138D01*
X0089339Y0218799D02*
X0089339Y0210673D01*
X0080677Y0210673D02*
X0080677Y0206461D01*
X0083000Y0204138D01*
X0129000Y0204138D01*
X0138000Y0195138D01*
X0135000Y0187138D02*
X0134465Y0186799D01*
X0129150Y0181484D01*
X0113795Y0181484D01*
X0106709Y0174398D01*
X0093126Y0174398D01*
X0092598Y0174138D01*
X0081402Y0174138D02*
X0081315Y0174398D01*
X0080724Y0174988D01*
X0080724Y0189752D01*
X0080402Y0190138D01*
X0080724Y0190343D01*
X0083677Y0190343D01*
X0088402Y0195067D01*
X0107299Y0195067D01*
X0114976Y0187390D01*
X0115000Y0187138D01*
X0113795Y0182665D02*
X0120291Y0182665D01*
X0124425Y0186799D01*
X0125000Y0187138D01*
X0130921Y0179122D02*
X0134465Y0182665D01*
X0140370Y0182665D01*
X0144504Y0186799D01*
X0145000Y0187138D01*
X0130921Y0179122D02*
X0130921Y0177350D01*
X0123244Y0169673D01*
X0064780Y0169673D01*
X0047654Y0152547D01*
X0046472Y0152547D01*
X0046000Y0152138D01*
X0044000Y0144138D02*
X0036000Y0152138D01*
X0036000Y0164138D01*
X0067685Y0195823D01*
X0067685Y0210673D01*
X0063354Y0210673D02*
X0063354Y0234492D01*
X0066000Y0237138D01*
X0162000Y0237138D01*
X0170000Y0229138D01*
X0200016Y0186799D02*
X0297457Y0186799D01*
X0304543Y0179713D01*
X0307496Y0179713D01*
X0307870Y0179185D01*
X0311630Y0182665D02*
X0309268Y0185028D01*
X0301000Y0185028D01*
X0257299Y0228728D01*
X0254346Y0228728D01*
X0254000Y0229138D01*
X0254346Y0229319D01*
X0257000Y0200138D02*
X0256709Y0199791D01*
X0255528Y0199791D01*
X0243717Y0187980D01*
X0237811Y0179122D02*
X0163402Y0104713D01*
X0166945Y0102941D02*
X0166945Y0101169D01*
X0168126Y0102350D01*
X0168677Y0102070D01*
X0168717Y0101760D01*
X0169898Y0101760D01*
X0171669Y0101760D01*
X0172260Y0102350D01*
X0172260Y0103531D01*
X0172654Y0103645D01*
X0172850Y0104122D01*
X0172850Y0104713D01*
X0173441Y0105303D01*
X0175213Y0105303D01*
X0175803Y0104713D01*
X0175803Y0104122D01*
X0176039Y0103645D01*
X0176197Y0104516D01*
X0177181Y0105500D01*
X0192929Y0105500D01*
X0174622Y0104122D02*
X0174346Y0103645D01*
X0174622Y0104122D02*
X0173441Y0105303D01*
X0171079Y0103531D02*
X0170961Y0103645D01*
X0171079Y0103531D02*
X0171079Y0102941D01*
X0169898Y0101760D01*
X0168677Y0100377D02*
X0168126Y0100579D01*
X0167535Y0100579D01*
X0166945Y0101169D01*
X0166945Y0102941D02*
X0167535Y0103531D01*
X0168126Y0103531D01*
X0168677Y0103763D01*
X0165764Y0098807D02*
X0148638Y0098807D01*
X0136236Y0111209D01*
X0135652Y0111288D01*
X0125016Y0111209D02*
X0124628Y0111288D01*
X0125016Y0111209D02*
X0125016Y0099398D01*
X0124638Y0099308D01*
X0124425Y0098807D01*
X0120291Y0094673D01*
X0107890Y0107075D02*
X0094898Y0107075D01*
X0093126Y0108846D01*
X0093094Y0109201D01*
X0090173Y0110618D02*
X0090173Y0104713D01*
X0091354Y0104713D01*
X0090173Y0104713D02*
X0090173Y0097626D01*
X0093126Y0094673D01*
X0093488Y0094138D01*
X0104906Y0109201D02*
X0104937Y0109437D01*
X0110252Y0109437D01*
X0106709Y0114752D02*
X0107890Y0115933D01*
X0107890Y0122429D01*
X0106709Y0114752D02*
X0106118Y0114752D01*
X0104937Y0113571D01*
X0104906Y0113138D01*
X0093094Y0113138D02*
X0092535Y0112980D01*
X0090173Y0110618D01*
X0100803Y0129516D02*
X0093717Y0136602D01*
X0093488Y0137138D01*
X0093717Y0137193D01*
X0093717Y0157862D01*
X0093488Y0158138D01*
X0097260Y0162587D02*
X0089583Y0162587D01*
X0069504Y0142508D01*
X0067874Y0144138D01*
X0044000Y0144138D01*
X0069504Y0142508D02*
X0069504Y0052154D01*
X0064189Y0046839D01*
X0052969Y0046839D01*
X0045291Y0039161D01*
X0045291Y0035028D01*
X0048244Y0032075D01*
X0054740Y0032075D01*
X0059465Y0036799D01*
X0060000Y0037138D01*
X0060055Y0036799D01*
X0063598Y0033256D01*
X0090173Y0033256D01*
X0094898Y0037980D01*
X0103756Y0037980D01*
X0103874Y0038138D01*
X0104346Y0037587D01*
X0104346Y0032665D01*
X0167339Y0032665D01*
X0173244Y0038571D01*
X0173638Y0039343D01*
X0192929Y0039555D02*
X0193638Y0039343D01*
X0192929Y0039555D02*
X0192929Y0057272D01*
X0174622Y0088768D02*
X0144504Y0058650D01*
X0132102Y0058650D01*
X0125016Y0063374D02*
X0124668Y0063418D01*
X0124425Y0063374D01*
X0114386Y0053335D01*
X0101984Y0053335D01*
X0101598Y0053138D01*
X0101394Y0052744D01*
X0094307Y0045657D01*
X0061827Y0045657D01*
X0053559Y0037390D01*
X0050016Y0037390D01*
X0050000Y0037138D01*
X0085449Y0048020D02*
X0090173Y0052744D01*
X0090402Y0053138D01*
X0135672Y0075378D02*
X0136236Y0075776D01*
X0153953Y0093492D01*
X0168126Y0093492D01*
X0168677Y0093606D01*
X0168717Y0095264D02*
X0168677Y0095298D01*
X0168126Y0095264D01*
X0167535Y0095264D01*
X0166945Y0095854D01*
X0166945Y0096445D01*
X0168717Y0095264D02*
X0170488Y0095264D01*
X0172260Y0093492D01*
X0175213Y0096445D01*
X0172260Y0093492D02*
X0172850Y0092902D01*
X0172850Y0092311D01*
X0172654Y0092031D01*
X0172850Y0091720D01*
X0172850Y0088768D01*
X0171079Y0086996D01*
X0169898Y0086996D01*
X0168126Y0088768D01*
X0168126Y0091720D01*
X0168677Y0091913D01*
X0170961Y0092031D02*
X0171079Y0091720D01*
X0171079Y0089949D01*
X0170488Y0089358D01*
X0174622Y0088768D02*
X0174622Y0091720D01*
X0174346Y0092031D01*
X0123835Y0137193D02*
X0123835Y0147232D01*
X0134465Y0157862D01*
X0134512Y0158138D01*
X0135055Y0158453D01*
X0135055Y0167311D01*
X0144504Y0176760D01*
X0145000Y0177138D01*
X0145094Y0176760D01*
X0149228Y0176760D01*
X0123488Y0158138D02*
X0123244Y0158453D01*
X0104937Y0158453D01*
X0104512Y0158138D01*
X0104346Y0158453D01*
X0101394Y0158453D01*
X0097260Y0162587D01*
X0104512Y0158138D02*
X0104346Y0157862D01*
X0104346Y0137193D01*
X0104512Y0137138D01*
X0113795Y0182665D02*
X0106709Y0189752D01*
X0091945Y0189752D01*
X0091598Y0190138D01*
X0170618Y0148862D02*
X0171079Y0149004D01*
X0174622Y0152547D01*
X0181709Y0152547D01*
X0175539Y0148862D02*
X0175213Y0148413D01*
X0172260Y0145461D01*
X0203559Y0180894D02*
X0203559Y0182665D01*
X0204000Y0182736D01*
X0222457Y0172035D02*
X0227772Y0172035D01*
X0237811Y0179122D02*
X0297457Y0179122D01*
X0297870Y0179185D01*
X0313992Y0163177D02*
X0314583Y0163177D01*
X0318717Y0159043D01*
X0319000Y0158736D01*
X0315173Y0154319D02*
X0311039Y0158453D01*
X0309268Y0158453D01*
X0309000Y0158650D01*
X0302772Y0151957D02*
X0306906Y0147823D01*
X0308677Y0147823D01*
X0309000Y0147626D01*
X0318717Y0147232D02*
X0319000Y0147539D01*
X0318717Y0147232D02*
X0318717Y0138374D01*
X0316500Y0124161D02*
X0316945Y0123610D01*
X0319898Y0120657D01*
X0335843Y0120657D01*
X0338205Y0123020D01*
X0338402Y0123138D01*
X0333480Y0123610D02*
X0321669Y0123610D01*
X0321500Y0124161D01*
X0296500Y0124161D02*
X0296276Y0124201D01*
X0296276Y0128335D01*
X0291500Y0124161D02*
X0290961Y0124201D01*
X0273835Y0124201D02*
X0273835Y0118886D01*
X0274000Y0118736D01*
X0259000Y0118736D02*
X0258480Y0118295D01*
X0274000Y0107539D02*
X0274425Y0107075D01*
X0282693Y0098807D01*
X0292732Y0098807D01*
X0293323Y0098807D01*
X0296276Y0101760D01*
X0296500Y0102114D01*
X0349000Y0158736D02*
X0348835Y0159043D01*
X0347063Y0159043D01*
X0342929Y0163177D01*
X0335252Y0163177D01*
X0337870Y0209185D02*
X0337614Y0209240D01*
X0328165Y0209240D01*
X0327870Y0209185D01*
X0327575Y0209240D01*
X0318126Y0209240D01*
X0317870Y0209185D01*
X0317535Y0209240D01*
X0308087Y0209240D01*
X0307870Y0209185D01*
X0307496Y0209240D01*
X0298047Y0209240D01*
X0297870Y0209185D01*
X0337870Y0209185D02*
X0338205Y0209240D01*
X0347654Y0209240D01*
X0347870Y0209185D01*
D36*
X0313992Y0163177D03*
X0318717Y0138374D03*
X0306315Y0130697D03*
X0296276Y0128335D03*
X0286827Y0128335D03*
X0278559Y0131287D03*
X0278559Y0137193D03*
X0273835Y0124201D03*
X0311039Y0097035D03*
X0299228Y0089358D03*
X0293913Y0094673D03*
X0277969Y0084043D03*
X0273244Y0088177D03*
X0287417Y0073413D03*
X0319307Y0072232D03*
X0326394Y0062193D03*
X0324031Y0084043D03*
X0333480Y0123610D03*
X0344110Y0123610D03*
X0338795Y0136602D03*
X0227772Y0172035D03*
X0182890Y0135421D03*
X0163402Y0104713D03*
X0175213Y0096445D03*
X0170488Y0089358D03*
X0130331Y0109437D03*
X0110252Y0109437D03*
X0107890Y0107075D03*
X0091354Y0104713D03*
X0085449Y0048020D03*
X0161039Y0179122D03*
D37*
X0234000Y0229138D02*
X0234000Y0237138D01*
X0229000Y0242138D01*
X0020000Y0242138D01*
X0244000Y0238138D02*
X0244000Y0229138D01*
X0244000Y0238138D02*
X0254000Y0248138D01*
X0260000Y0241138D02*
X0361000Y0241138D01*
X0374000Y0228138D01*
X0363000Y0233138D02*
X0363000Y0042138D01*
X0341000Y0020138D01*
X0254000Y0229138D02*
X0254000Y0235138D01*
X0260000Y0241138D01*
X0264000Y0235138D02*
X0266000Y0237138D01*
X0359000Y0237138D01*
X0363000Y0233138D01*
X0264000Y0233138D02*
X0264000Y0235138D01*
D38*
X0221000Y0239138D03*
X0138000Y0195138D03*
X0089000Y0219138D03*
D39*
X0035000Y0020138D02*
X0035000Y0009138D01*
X0339000Y0009138D01*
X0339000Y0020138D02*
X0035000Y0020138D01*
X0021000Y0042138D02*
X0021000Y0237138D01*
X0009000Y0237138D01*
X0009000Y0042138D01*
X0111000Y0251138D02*
X0345000Y0251138D01*
X0345000Y0262138D01*
X0111000Y0262138D01*
X0375000Y0232138D02*
X0375000Y0037138D01*
X0387000Y0037138D01*
X0387000Y0232138D01*
D40*
X0019992Y0242079D02*
X0017594Y0239681D01*
X0015425Y0239681D01*
M02*
