%
M48
M72
T01C0.01378
T02C0.02362
T03C0.03150
T04C0.03200
T05C0.03543
T06C0.03600
T07C0.03937
T08C0.04000
%
T01
X85449Y48020
X91354Y104713
X107890Y107075
X110252Y109437
X130331Y109437
X163402Y104713
X175213Y96445
X170488Y89358
X182890Y135421
X227772Y172035
X278559Y137193
X278559Y131287
X273835Y124201
X286827Y128335
X296276Y128335
X306315Y130697
X318717Y138374
X338795Y136602
X333480Y123610
X344110Y123610
X311039Y97035
X299228Y89358
X293913Y94673
X277969Y84043
X273244Y88177
X287417Y73413
X319307Y72232
X326394Y62193
X324031Y84043
X313992Y163177
X161039Y179122
T02
X138000Y195138
X89000Y219138
X221000Y239138
T03
X216874Y82138
X216874Y72138
T04
X233000Y96138
X243000Y96138
X213638Y39343
X203638Y39343
X193638Y39343
X183638Y39343
X173638Y39343
X163638Y39343
X153638Y39343
X143638Y39343
X346000Y39138
X346000Y49138
X347870Y179185
X337870Y179185
X327870Y179185
X317870Y179185
X307870Y179185
X297870Y179185
X297870Y209185
X307870Y209185
X317870Y209185
X327870Y209185
X337870Y209185
X347870Y209185
X284000Y229138
X274000Y229138
X264000Y229138
X254000Y229138
X244000Y229138
X234000Y229138
X224000Y229138
X214000Y229138
X200000Y229138
X190000Y229138
X180000Y229138
X170000Y229138
X160000Y229138
X150000Y229138
X140000Y229138
X130000Y229138
X120000Y229138
X110000Y229138
T05
X103874Y38138
X88126Y38138
T06
X233950Y39188
X243950Y39188
X253950Y39188
X263950Y39188
X273950Y39188
X283950Y39188
X293950Y39188
X303950Y39188
X313950Y39188
X313950Y49188
X303950Y49188
X293950Y49188
X283950Y49188
X273950Y49188
X263950Y49188
X253950Y49188
X243950Y49188
X233950Y49188
T07
X77134Y252012
X77134Y252016
X45642Y252012
X45638Y252012
T08
X40000Y37138
X50000Y37138
X60000Y37138
X56000Y152138
X46000Y152138
X115000Y177138
X125000Y177138
X135000Y177138
X145000Y177138
X145000Y187138
X135000Y187138
X125000Y187138
X115000Y187138
X187000Y200138
X197000Y200138
X207000Y200138
X217000Y200138
X227000Y200138
X237000Y200138
X247000Y200138
X257000Y200138
M30
