G75*
%MOIN*%
%OFA0B0*%
%FSLAX25Y25*%
%IPPOS*%
%LPD*%
%AMOC8*
5,1,8,0,0,1.08239X$1,22.5*
%
%ADD10OC8,0.04800*%
%ADD11OC8,0.06600*%
%ADD12C,0.06600*%
%ADD13C,0.06000*%
%ADD14C,0.07400*%
%ADD15C,0.04800*%
%ADD16C,0.05400*%
%ADD17OC8,0.05400*%
%ADD18OC8,0.06000*%
%ADD19R,0.07600X0.07600*%
%ADD20C,0.07600*%
%ADD21C,0.00591*%
%ADD22C,0.02362*%
%ADD23C,0.03543*%
D10*
X0233000Y0096138D03*
X0243000Y0096138D03*
D11*
X0346000Y0049138D03*
X0346000Y0039138D03*
D12*
X0216874Y0072138D03*
X0216874Y0082138D03*
D13*
X0056000Y0149138D02*
X0056000Y0155138D01*
X0046000Y0155138D02*
X0046000Y0149138D01*
X0187000Y0197138D02*
X0187000Y0203138D01*
X0197000Y0203138D02*
X0197000Y0197138D01*
X0207000Y0197138D02*
X0207000Y0203138D01*
X0217000Y0203138D02*
X0217000Y0197138D01*
X0227000Y0197138D02*
X0227000Y0203138D01*
X0237000Y0203138D02*
X0237000Y0197138D01*
X0247000Y0197138D02*
X0247000Y0203138D01*
X0257000Y0203138D02*
X0257000Y0197138D01*
D14*
X0103874Y0038138D03*
X0088126Y0038138D03*
D15*
X0143638Y0036943D02*
X0143638Y0041743D01*
X0153638Y0041743D02*
X0153638Y0036943D01*
X0163638Y0036943D02*
X0163638Y0041743D01*
X0173638Y0041743D02*
X0173638Y0036943D01*
X0183638Y0036943D02*
X0183638Y0041743D01*
X0193638Y0041743D02*
X0193638Y0036943D01*
X0203638Y0036943D02*
X0203638Y0041743D01*
X0213638Y0041743D02*
X0213638Y0036943D01*
X0297870Y0176785D02*
X0297870Y0181585D01*
X0307870Y0181585D02*
X0307870Y0176785D01*
X0317870Y0176785D02*
X0317870Y0181585D01*
X0327870Y0181585D02*
X0327870Y0176785D01*
X0337870Y0176785D02*
X0337870Y0181585D01*
X0347870Y0181585D02*
X0347870Y0176785D01*
X0347870Y0206785D02*
X0347870Y0211585D01*
X0337870Y0211585D02*
X0337870Y0206785D01*
X0327870Y0206785D02*
X0327870Y0211585D01*
X0317870Y0211585D02*
X0317870Y0206785D01*
X0307870Y0206785D02*
X0307870Y0211585D01*
X0297870Y0211585D02*
X0297870Y0206785D01*
X0284000Y0226738D02*
X0284000Y0231538D01*
X0274000Y0231538D02*
X0274000Y0226738D01*
X0264000Y0226738D02*
X0264000Y0231538D01*
X0254000Y0231538D02*
X0254000Y0226738D01*
X0244000Y0226738D02*
X0244000Y0231538D01*
X0234000Y0231538D02*
X0234000Y0226738D01*
X0224000Y0226738D02*
X0224000Y0231538D01*
X0214000Y0231538D02*
X0214000Y0226738D01*
X0200000Y0226738D02*
X0200000Y0231538D01*
X0190000Y0231538D02*
X0190000Y0226738D01*
X0180000Y0226738D02*
X0180000Y0231538D01*
X0170000Y0231538D02*
X0170000Y0226738D01*
X0160000Y0226738D02*
X0160000Y0231538D01*
X0150000Y0231538D02*
X0150000Y0226738D01*
X0140000Y0226738D02*
X0140000Y0231538D01*
X0130000Y0231538D02*
X0130000Y0226738D01*
X0120000Y0226738D02*
X0120000Y0231538D01*
X0110000Y0231538D02*
X0110000Y0226738D01*
D16*
X0313950Y0039188D03*
D17*
X0303950Y0039188D03*
X0293950Y0039188D03*
X0283950Y0039188D03*
X0273950Y0039188D03*
X0263950Y0039188D03*
X0253950Y0039188D03*
X0243950Y0039188D03*
X0233950Y0039188D03*
X0233950Y0049188D03*
X0243950Y0049188D03*
X0253950Y0049188D03*
X0263950Y0049188D03*
X0273950Y0049188D03*
X0283950Y0049188D03*
X0293950Y0049188D03*
X0303950Y0049188D03*
X0313950Y0049188D03*
D18*
X0145000Y0177138D03*
X0135000Y0177138D03*
X0125000Y0177138D03*
X0115000Y0177138D03*
X0115000Y0187138D03*
X0125000Y0187138D03*
X0135000Y0187138D03*
X0145000Y0187138D03*
D19*
X0040000Y0037138D03*
D20*
X0050000Y0037138D03*
X0060000Y0037138D03*
D21*
X0045291Y0032075D02*
X0040567Y0036799D01*
X0040000Y0037138D01*
X0045291Y0032075D02*
X0262024Y0032075D01*
X0269110Y0039161D01*
X0273835Y0039161D01*
X0273950Y0039188D01*
X0280331Y0043295D02*
X0283874Y0039752D01*
X0283950Y0039188D01*
X0280331Y0043295D02*
X0252575Y0043295D01*
X0249031Y0039752D01*
X0244307Y0039752D01*
X0243950Y0039188D01*
X0243717Y0039161D01*
X0237811Y0033256D01*
X0101984Y0033256D01*
X0097260Y0037980D01*
X0088402Y0037980D01*
X0088126Y0038138D01*
X0087811Y0038571D01*
X0085449Y0040933D01*
X0085449Y0048020D01*
X0091354Y0104713D02*
X0163402Y0104713D01*
X0170488Y0107075D02*
X0107890Y0107075D01*
X0110252Y0109437D02*
X0076000Y0143689D01*
X0055921Y0143689D01*
X0051787Y0147823D01*
X0051787Y0156681D01*
X0119701Y0224594D01*
X0119701Y0228728D01*
X0120000Y0229138D01*
X0143323Y0229909D02*
X0143323Y0221051D01*
X0110843Y0188571D01*
X0110843Y0185618D01*
X0113795Y0182665D01*
X0140370Y0182665D01*
X0144504Y0186799D01*
X0145000Y0187138D01*
X0138000Y0195138D02*
X0160000Y0217138D01*
X0160000Y0229138D01*
X0160449Y0228728D01*
X0162811Y0228728D01*
X0184071Y0207469D01*
X0209465Y0207469D01*
X0216551Y0200382D01*
X0217000Y0200138D01*
X0228362Y0208650D02*
X0236630Y0200382D01*
X0237000Y0200138D01*
X0241354Y0203335D02*
X0241354Y0195657D01*
X0227181Y0181484D01*
X0119701Y0181484D01*
X0115567Y0177350D01*
X0115000Y0177138D01*
X0114976Y0176760D01*
X0090764Y0152547D01*
X0056512Y0152547D01*
X0056000Y0152138D01*
X0115000Y0187138D02*
X0115567Y0187390D01*
X0153362Y0225185D01*
X0153362Y0229909D01*
X0158677Y0235224D01*
X0275016Y0235224D01*
X0277378Y0232862D01*
X0277378Y0222232D01*
X0296276Y0203335D01*
X0331118Y0203335D01*
X0351197Y0183256D01*
X0351197Y0174988D01*
X0349425Y0173217D01*
X0346472Y0173217D01*
X0340567Y0179122D01*
X0338205Y0179122D01*
X0337870Y0179185D01*
X0334071Y0180303D02*
X0334071Y0175579D01*
X0337614Y0172035D01*
X0352378Y0172035D01*
X0352378Y0147232D01*
X0299228Y0094083D01*
X0299228Y0089358D01*
X0293913Y0094673D02*
X0293913Y0115933D01*
X0296276Y0115933D01*
X0318717Y0138374D01*
X0313992Y0135421D02*
X0306906Y0128335D01*
X0296276Y0128335D01*
X0286827Y0128335D01*
X0278559Y0131287D02*
X0293913Y0115933D01*
X0306315Y0130697D02*
X0306315Y0133650D01*
X0277969Y0133650D01*
X0273244Y0128925D01*
X0273244Y0124201D01*
X0273835Y0124201D01*
X0273244Y0124201D02*
X0273244Y0088177D01*
X0270882Y0087587D02*
X0285055Y0073413D01*
X0287417Y0073413D01*
X0311039Y0097035D01*
X0313992Y0097035D01*
X0326394Y0084634D01*
X0326394Y0062193D01*
X0324031Y0061012D02*
X0345882Y0039161D01*
X0346000Y0039138D01*
X0324031Y0061012D02*
X0324031Y0072232D01*
X0319307Y0072232D01*
X0289189Y0072232D01*
X0288008Y0071051D01*
X0227772Y0071051D01*
X0226591Y0072232D01*
X0193913Y0039555D01*
X0193638Y0039343D01*
X0173638Y0039343D02*
X0173441Y0039752D01*
X0172850Y0040343D01*
X0172850Y0097035D01*
X0227772Y0151957D01*
X0227772Y0172035D01*
X0283283Y0172035D01*
X0296276Y0185028D01*
X0329346Y0185028D01*
X0334071Y0180303D01*
X0327870Y0179185D02*
X0327575Y0179713D01*
X0306315Y0158453D01*
X0306315Y0133650D01*
X0313992Y0135421D02*
X0313992Y0163177D01*
X0311630Y0173217D02*
X0305134Y0173217D01*
X0228362Y0096445D01*
X0175213Y0096445D01*
X0170488Y0089358D02*
X0170488Y0107075D01*
X0170488Y0123020D01*
X0182890Y0135421D01*
X0161039Y0157272D01*
X0161039Y0179122D01*
X0192929Y0208650D02*
X0228362Y0208650D01*
X0241354Y0203335D02*
X0245488Y0207469D01*
X0249622Y0207469D01*
X0270882Y0228728D01*
X0273835Y0228728D01*
X0274000Y0229138D01*
X0275606Y0236406D02*
X0149819Y0236406D01*
X0143323Y0229909D01*
X0170000Y0229138D02*
X0170488Y0228728D01*
X0172850Y0228728D01*
X0192929Y0208650D01*
X0221000Y0239138D02*
X0220000Y0240138D01*
X0092000Y0240138D01*
X0089000Y0237138D01*
X0089000Y0219138D01*
X0247000Y0200138D02*
X0247260Y0199791D01*
X0254346Y0192705D01*
X0331709Y0192705D01*
X0344701Y0179713D01*
X0347654Y0179713D01*
X0347870Y0179185D01*
X0352378Y0172035D02*
X0352378Y0204516D01*
X0348244Y0208650D01*
X0347870Y0209185D01*
X0317870Y0179185D02*
X0317535Y0179122D01*
X0311630Y0173217D01*
X0338795Y0136602D02*
X0286236Y0084043D01*
X0277969Y0084043D01*
X0270882Y0087587D02*
X0270882Y0128335D01*
X0278559Y0136012D01*
X0278559Y0137193D01*
X0333480Y0123610D02*
X0344110Y0123610D01*
X0324031Y0084043D02*
X0324031Y0072232D01*
X0226591Y0072232D02*
X0217142Y0081681D01*
X0216874Y0082138D01*
X0130331Y0109437D02*
X0110252Y0109437D01*
X0275606Y0236406D02*
X0282693Y0229319D01*
X0283874Y0229319D01*
X0284000Y0229138D01*
D22*
X0227772Y0172035D03*
X0182890Y0135421D03*
X0163402Y0104713D03*
X0175213Y0096445D03*
X0170488Y0089358D03*
X0130331Y0109437D03*
X0110252Y0109437D03*
X0107890Y0107075D03*
X0091354Y0104713D03*
X0085449Y0048020D03*
X0273244Y0088177D03*
X0277969Y0084043D03*
X0287417Y0073413D03*
X0299228Y0089358D03*
X0293913Y0094673D03*
X0311039Y0097035D03*
X0324031Y0084043D03*
X0319307Y0072232D03*
X0326394Y0062193D03*
X0333480Y0123610D03*
X0344110Y0123610D03*
X0338795Y0136602D03*
X0318717Y0138374D03*
X0306315Y0130697D03*
X0296276Y0128335D03*
X0286827Y0128335D03*
X0278559Y0131287D03*
X0278559Y0137193D03*
X0273835Y0124201D03*
X0313992Y0163177D03*
X0161039Y0179122D03*
D23*
X0138000Y0195138D03*
X0089000Y0219138D03*
X0221000Y0239138D03*
M02*
