G75*
%MOIN*%
%OFA0B0*%
%FSLAX25Y25*%
%IPPOS*%
%LPD*%
%AMOC8*
5,1,8,0,0,1.08239X$1,22.5*
%
%ADD10C,0.03937*%
%ADD11OC8,0.04800*%
%ADD12OC8,0.06600*%
%ADD13C,0.06600*%
%ADD14C,0.06000*%
%ADD15C,0.00500*%
%ADD16C,0.04800*%
%ADD17C,0.05400*%
%ADD18OC8,0.05400*%
%ADD19OC8,0.06000*%
%ADD20R,0.07600X0.07600*%
%ADD21C,0.07600*%
%ADD22C,0.03543*%
D10*
X0045638Y0252012D03*
X0045642Y0252012D03*
X0077134Y0252012D03*
X0077134Y0252016D03*
D11*
X0233000Y0096138D03*
X0243000Y0096138D03*
D12*
X0346000Y0049138D03*
X0346000Y0039138D03*
D13*
X0216874Y0072138D03*
X0216874Y0082138D03*
D14*
X0056000Y0149138D02*
X0056000Y0155138D01*
X0046000Y0155138D02*
X0046000Y0149138D01*
X0187000Y0197138D02*
X0187000Y0203138D01*
X0197000Y0203138D02*
X0197000Y0197138D01*
X0207000Y0197138D02*
X0207000Y0203138D01*
X0217000Y0203138D02*
X0217000Y0197138D01*
X0227000Y0197138D02*
X0227000Y0203138D01*
X0237000Y0203138D02*
X0237000Y0197138D01*
X0247000Y0197138D02*
X0247000Y0203138D01*
X0257000Y0203138D02*
X0257000Y0197138D01*
D15*
X0106327Y0040965D02*
X0106788Y0040490D01*
X0107159Y0039943D01*
X0107430Y0039339D01*
X0107592Y0038698D01*
X0107640Y0038038D01*
X0107562Y0037319D01*
X0107344Y0036629D01*
X0106996Y0035994D01*
X0106531Y0035440D01*
X0105967Y0034987D01*
X0105325Y0034653D01*
X0104631Y0034451D01*
X0103910Y0034388D01*
X0103185Y0034449D01*
X0102486Y0034651D01*
X0101840Y0034985D01*
X0101272Y0035439D01*
X0100803Y0035995D01*
X0100452Y0036632D01*
X0100231Y0037325D01*
X0100150Y0038048D01*
X0100200Y0038708D01*
X0100364Y0039349D01*
X0100636Y0039952D01*
X0101009Y0040498D01*
X0101471Y0040971D01*
X0102009Y0041357D01*
X0102605Y0041644D01*
X0103242Y0041823D01*
X0103900Y0041888D01*
X0104558Y0041821D01*
X0105195Y0041640D01*
X0105790Y0041352D01*
X0106327Y0040965D01*
X0106244Y0041025D02*
X0101545Y0041025D01*
X0101036Y0040526D02*
X0106753Y0040526D01*
X0107102Y0040028D02*
X0100688Y0040028D01*
X0100445Y0039529D02*
X0107345Y0039529D01*
X0107508Y0039031D02*
X0100282Y0039031D01*
X0100187Y0038532D02*
X0107604Y0038532D01*
X0107640Y0038034D02*
X0100152Y0038034D01*
X0100208Y0037535D02*
X0107585Y0037535D01*
X0107473Y0037037D02*
X0100323Y0037037D01*
X0100504Y0036538D02*
X0107294Y0036538D01*
X0107021Y0036040D02*
X0100779Y0036040D01*
X0101186Y0035541D02*
X0106616Y0035541D01*
X0106036Y0035043D02*
X0101769Y0035043D01*
X0102858Y0034544D02*
X0104951Y0034544D01*
X0105437Y0041523D02*
X0102354Y0041523D01*
X0091792Y0038698D02*
X0091840Y0038038D01*
X0091762Y0037319D01*
X0091544Y0036629D01*
X0091196Y0035994D01*
X0090731Y0035440D01*
X0090167Y0034987D01*
X0089525Y0034653D01*
X0088831Y0034451D01*
X0088110Y0034388D01*
X0087385Y0034449D01*
X0086686Y0034651D01*
X0086040Y0034985D01*
X0085472Y0035439D01*
X0085003Y0035995D01*
X0084652Y0036632D01*
X0084431Y0037325D01*
X0084350Y0038048D01*
X0084400Y0038708D01*
X0084564Y0039349D01*
X0084836Y0039952D01*
X0085209Y0040498D01*
X0085671Y0040971D01*
X0086209Y0041357D01*
X0086805Y0041644D01*
X0087442Y0041823D01*
X0088100Y0041888D01*
X0088758Y0041821D01*
X0089395Y0041640D01*
X0089990Y0041352D01*
X0090527Y0040965D01*
X0090988Y0040490D01*
X0091359Y0039943D01*
X0091630Y0039339D01*
X0091792Y0038698D01*
X0091804Y0038532D02*
X0084387Y0038532D01*
X0084352Y0038034D02*
X0091840Y0038034D01*
X0091785Y0037535D02*
X0084408Y0037535D01*
X0084523Y0037037D02*
X0091673Y0037037D01*
X0091494Y0036538D02*
X0084704Y0036538D01*
X0084979Y0036040D02*
X0091221Y0036040D01*
X0090816Y0035541D02*
X0085386Y0035541D01*
X0085969Y0035043D02*
X0090236Y0035043D01*
X0089151Y0034544D02*
X0087058Y0034544D01*
X0084482Y0039031D02*
X0091708Y0039031D01*
X0091545Y0039529D02*
X0084645Y0039529D01*
X0084888Y0040028D02*
X0091302Y0040028D01*
X0090953Y0040526D02*
X0085236Y0040526D01*
X0085745Y0041025D02*
X0090444Y0041025D01*
X0089637Y0041523D02*
X0086554Y0041523D01*
D16*
X0143638Y0041743D02*
X0143638Y0036943D01*
X0153638Y0036943D02*
X0153638Y0041743D01*
X0163638Y0041743D02*
X0163638Y0036943D01*
X0173638Y0036943D02*
X0173638Y0041743D01*
X0183638Y0041743D02*
X0183638Y0036943D01*
X0193638Y0036943D02*
X0193638Y0041743D01*
X0203638Y0041743D02*
X0203638Y0036943D01*
X0213638Y0036943D02*
X0213638Y0041743D01*
X0297870Y0176785D02*
X0297870Y0181585D01*
X0307870Y0181585D02*
X0307870Y0176785D01*
X0317870Y0176785D02*
X0317870Y0181585D01*
X0327870Y0181585D02*
X0327870Y0176785D01*
X0337870Y0176785D02*
X0337870Y0181585D01*
X0347870Y0181585D02*
X0347870Y0176785D01*
X0347870Y0206785D02*
X0347870Y0211585D01*
X0337870Y0211585D02*
X0337870Y0206785D01*
X0327870Y0206785D02*
X0327870Y0211585D01*
X0317870Y0211585D02*
X0317870Y0206785D01*
X0307870Y0206785D02*
X0307870Y0211585D01*
X0297870Y0211585D02*
X0297870Y0206785D01*
X0284000Y0226738D02*
X0284000Y0231538D01*
X0274000Y0231538D02*
X0274000Y0226738D01*
X0264000Y0226738D02*
X0264000Y0231538D01*
X0254000Y0231538D02*
X0254000Y0226738D01*
X0244000Y0226738D02*
X0244000Y0231538D01*
X0234000Y0231538D02*
X0234000Y0226738D01*
X0224000Y0226738D02*
X0224000Y0231538D01*
X0214000Y0231538D02*
X0214000Y0226738D01*
X0200000Y0226738D02*
X0200000Y0231538D01*
X0190000Y0231538D02*
X0190000Y0226738D01*
X0180000Y0226738D02*
X0180000Y0231538D01*
X0170000Y0231538D02*
X0170000Y0226738D01*
X0160000Y0226738D02*
X0160000Y0231538D01*
X0150000Y0231538D02*
X0150000Y0226738D01*
X0140000Y0226738D02*
X0140000Y0231538D01*
X0130000Y0231538D02*
X0130000Y0226738D01*
X0120000Y0226738D02*
X0120000Y0231538D01*
X0110000Y0231538D02*
X0110000Y0226738D01*
D17*
X0313950Y0039188D03*
D18*
X0303950Y0039188D03*
X0293950Y0039188D03*
X0283950Y0039188D03*
X0273950Y0039188D03*
X0263950Y0039188D03*
X0253950Y0039188D03*
X0243950Y0039188D03*
X0233950Y0039188D03*
X0233950Y0049188D03*
X0243950Y0049188D03*
X0253950Y0049188D03*
X0263950Y0049188D03*
X0273950Y0049188D03*
X0283950Y0049188D03*
X0293950Y0049188D03*
X0303950Y0049188D03*
X0313950Y0049188D03*
D19*
X0145000Y0177138D03*
X0135000Y0177138D03*
X0125000Y0177138D03*
X0115000Y0177138D03*
X0115000Y0187138D03*
X0125000Y0187138D03*
X0135000Y0187138D03*
X0145000Y0187138D03*
D20*
X0040000Y0037138D03*
D21*
X0050000Y0037138D03*
X0060000Y0037138D03*
D22*
X0138000Y0195138D03*
X0089000Y0219138D03*
X0221000Y0239138D03*
M02*
