G75*
%MOIN*%
%OFA0B0*%
%FSLAX25Y25*%
%IPPOS*%
%LPD*%
%AMOC8*
5,1,8,0,0,1.08239X$1,22.5*
%
%ADD10C,0.03937*%
%ADD11R,0.07087X0.06299*%
%ADD12R,0.06299X0.07087*%
%ADD13R,0.01575X0.01575*%
%ADD14OC8,0.04800*%
%ADD15R,0.02362X0.04724*%
%ADD16OC8,0.06600*%
%ADD17C,0.06600*%
%ADD18C,0.06000*%
%ADD19R,0.07098X0.06299*%
%ADD20R,0.06299X0.07098*%
%ADD21C,0.00500*%
%ADD22C,0.04800*%
%ADD23C,0.05400*%
%ADD24OC8,0.05400*%
%ADD25OC8,0.06000*%
%ADD26R,0.07600X0.07600*%
%ADD27C,0.07600*%
%ADD28R,0.03150X0.01969*%
%ADD29R,0.06800X0.10700*%
%ADD30R,0.01969X0.04724*%
%ADD31R,0.01772X0.01063*%
%ADD32R,0.01063X0.01772*%
%ADD33R,0.04724X0.04724*%
%ADD34R,0.03543X0.07087*%
%ADD35R,0.02756X0.06299*%
%ADD36C,0.03543*%
D10*
X0045638Y0252012D03*
X0045642Y0252012D03*
X0077134Y0252012D03*
X0077134Y0252016D03*
D11*
X0309000Y0158650D03*
X0309000Y0147626D03*
X0304000Y0078650D03*
X0304000Y0067626D03*
X0324000Y0067626D03*
X0324000Y0078650D03*
X0274000Y0078650D03*
X0274000Y0067626D03*
D12*
X0135692Y0063418D03*
X0124668Y0063418D03*
X0124648Y0075378D03*
X0135672Y0075378D03*
X0135662Y0087338D03*
X0124638Y0087338D03*
X0124638Y0099308D03*
X0135662Y0099308D03*
X0135652Y0111288D03*
X0124628Y0111288D03*
X0104512Y0094138D03*
X0093488Y0094138D03*
X0093488Y0137138D03*
X0104512Y0137138D03*
X0123488Y0137138D03*
X0134512Y0137138D03*
X0134512Y0158138D03*
X0123488Y0158138D03*
X0104512Y0158138D03*
X0093488Y0158138D03*
D13*
X0251244Y0133138D03*
X0256756Y0133138D03*
X0276244Y0133138D03*
X0281756Y0133138D03*
D14*
X0243000Y0096138D03*
X0233000Y0096138D03*
D15*
X0291500Y0102114D03*
X0296500Y0102114D03*
X0301500Y0102114D03*
X0306500Y0102114D03*
X0311500Y0102114D03*
X0316500Y0102114D03*
X0321500Y0102114D03*
X0321500Y0124161D03*
X0316500Y0124161D03*
X0311500Y0124161D03*
X0306500Y0124161D03*
X0301500Y0124161D03*
X0296500Y0124161D03*
X0291500Y0124161D03*
D16*
X0346000Y0049138D03*
X0346000Y0039138D03*
D17*
X0216874Y0072138D03*
X0216874Y0082138D03*
D18*
X0056000Y0149138D02*
X0056000Y0155138D01*
X0046000Y0155138D02*
X0046000Y0149138D01*
X0187000Y0197138D02*
X0187000Y0203138D01*
X0197000Y0203138D02*
X0197000Y0197138D01*
X0207000Y0197138D02*
X0207000Y0203138D01*
X0217000Y0203138D02*
X0217000Y0197138D01*
X0227000Y0197138D02*
X0227000Y0203138D01*
X0237000Y0203138D02*
X0237000Y0197138D01*
X0247000Y0197138D02*
X0247000Y0203138D01*
X0257000Y0203138D02*
X0257000Y0197138D01*
D19*
X0222000Y0182736D03*
X0222000Y0171539D03*
X0204000Y0171539D03*
X0204000Y0182736D03*
X0279000Y0158736D03*
X0289000Y0158736D03*
X0299000Y0158736D03*
X0299000Y0147539D03*
X0289000Y0147539D03*
X0279000Y0147539D03*
X0274000Y0118736D03*
X0259000Y0118736D03*
X0259000Y0107539D03*
X0274000Y0107539D03*
X0264000Y0078736D03*
X0254000Y0078736D03*
X0244000Y0078736D03*
X0244000Y0067539D03*
X0254000Y0067539D03*
X0264000Y0067539D03*
X0284000Y0067539D03*
X0294000Y0067539D03*
X0294000Y0078736D03*
X0284000Y0078736D03*
X0314000Y0078736D03*
X0314000Y0067539D03*
X0334000Y0067539D03*
X0334000Y0078736D03*
X0349000Y0078736D03*
X0349000Y0067539D03*
X0326000Y0049736D03*
X0326000Y0038539D03*
X0329000Y0147539D03*
X0339000Y0147539D03*
X0349000Y0147539D03*
X0349000Y0158736D03*
X0339000Y0158736D03*
X0329000Y0158736D03*
X0319000Y0158736D03*
X0319000Y0147539D03*
D20*
X0338402Y0123138D03*
X0349598Y0123138D03*
X0349598Y0103138D03*
X0338402Y0103138D03*
X0101598Y0053138D03*
X0090402Y0053138D03*
X0092598Y0174138D03*
X0081402Y0174138D03*
X0080402Y0190138D03*
X0091598Y0190138D03*
D21*
X0088100Y0039898D02*
X0088493Y0039847D01*
X0088865Y0039709D01*
X0089197Y0039493D01*
X0089472Y0039208D01*
X0089677Y0038869D01*
X0089802Y0038493D01*
X0089840Y0038098D01*
X0089793Y0037715D01*
X0089663Y0037351D01*
X0089454Y0037026D01*
X0089179Y0036755D01*
X0088850Y0036552D01*
X0088484Y0036428D01*
X0088100Y0036388D01*
X0087718Y0036422D01*
X0087354Y0036540D01*
X0087025Y0036736D01*
X0086748Y0037000D01*
X0086537Y0037320D01*
X0086402Y0037678D01*
X0086350Y0038058D01*
X0086385Y0038458D01*
X0086508Y0038841D01*
X0086714Y0039187D01*
X0086991Y0039478D01*
X0087326Y0039700D01*
X0087702Y0039843D01*
X0088100Y0039898D01*
X0087068Y0039529D02*
X0089141Y0039529D01*
X0089580Y0039031D02*
X0086621Y0039031D01*
X0086409Y0038532D02*
X0089789Y0038532D01*
X0089832Y0038034D02*
X0086353Y0038034D01*
X0086456Y0037535D02*
X0089729Y0037535D01*
X0089461Y0037037D02*
X0086724Y0037037D01*
X0087359Y0036538D02*
X0088808Y0036538D01*
X0102150Y0038058D02*
X0102185Y0038458D01*
X0102308Y0038841D01*
X0102514Y0039187D01*
X0102791Y0039478D01*
X0103126Y0039700D01*
X0103502Y0039843D01*
X0103900Y0039898D01*
X0104293Y0039847D01*
X0104665Y0039709D01*
X0104997Y0039493D01*
X0105272Y0039208D01*
X0105477Y0038869D01*
X0105602Y0038493D01*
X0105640Y0038098D01*
X0105593Y0037715D01*
X0105463Y0037351D01*
X0105254Y0037026D01*
X0104979Y0036755D01*
X0104650Y0036552D01*
X0104284Y0036428D01*
X0103900Y0036388D01*
X0103518Y0036422D01*
X0103154Y0036540D01*
X0102825Y0036736D01*
X0102548Y0037000D01*
X0102337Y0037320D01*
X0102202Y0037678D01*
X0102150Y0038058D01*
X0102153Y0038034D02*
X0105632Y0038034D01*
X0105589Y0038532D02*
X0102209Y0038532D01*
X0102421Y0039031D02*
X0105380Y0039031D01*
X0104941Y0039529D02*
X0102868Y0039529D01*
X0102256Y0037535D02*
X0105529Y0037535D01*
X0105261Y0037037D02*
X0102524Y0037037D01*
X0103159Y0036538D02*
X0104608Y0036538D01*
D22*
X0143638Y0036943D02*
X0143638Y0041743D01*
X0153638Y0041743D02*
X0153638Y0036943D01*
X0163638Y0036943D02*
X0163638Y0041743D01*
X0173638Y0041743D02*
X0173638Y0036943D01*
X0183638Y0036943D02*
X0183638Y0041743D01*
X0193638Y0041743D02*
X0193638Y0036943D01*
X0203638Y0036943D02*
X0203638Y0041743D01*
X0213638Y0041743D02*
X0213638Y0036943D01*
X0297870Y0176785D02*
X0297870Y0181585D01*
X0307870Y0181585D02*
X0307870Y0176785D01*
X0317870Y0176785D02*
X0317870Y0181585D01*
X0327870Y0181585D02*
X0327870Y0176785D01*
X0337870Y0176785D02*
X0337870Y0181585D01*
X0347870Y0181585D02*
X0347870Y0176785D01*
X0347870Y0206785D02*
X0347870Y0211585D01*
X0337870Y0211585D02*
X0337870Y0206785D01*
X0327870Y0206785D02*
X0327870Y0211585D01*
X0317870Y0211585D02*
X0317870Y0206785D01*
X0307870Y0206785D02*
X0307870Y0211585D01*
X0297870Y0211585D02*
X0297870Y0206785D01*
X0284000Y0226738D02*
X0284000Y0231538D01*
X0274000Y0231538D02*
X0274000Y0226738D01*
X0264000Y0226738D02*
X0264000Y0231538D01*
X0254000Y0231538D02*
X0254000Y0226738D01*
X0244000Y0226738D02*
X0244000Y0231538D01*
X0234000Y0231538D02*
X0234000Y0226738D01*
X0224000Y0226738D02*
X0224000Y0231538D01*
X0214000Y0231538D02*
X0214000Y0226738D01*
X0200000Y0226738D02*
X0200000Y0231538D01*
X0190000Y0231538D02*
X0190000Y0226738D01*
X0180000Y0226738D02*
X0180000Y0231538D01*
X0170000Y0231538D02*
X0170000Y0226738D01*
X0160000Y0226738D02*
X0160000Y0231538D01*
X0150000Y0231538D02*
X0150000Y0226738D01*
X0140000Y0226738D02*
X0140000Y0231538D01*
X0130000Y0231538D02*
X0130000Y0226738D01*
X0120000Y0226738D02*
X0120000Y0231538D01*
X0110000Y0231538D02*
X0110000Y0226738D01*
D23*
X0313950Y0039188D03*
D24*
X0303950Y0039188D03*
X0293950Y0039188D03*
X0283950Y0039188D03*
X0273950Y0039188D03*
X0263950Y0039188D03*
X0253950Y0039188D03*
X0243950Y0039188D03*
X0233950Y0039188D03*
X0233950Y0049188D03*
X0243950Y0049188D03*
X0253950Y0049188D03*
X0263950Y0049188D03*
X0273950Y0049188D03*
X0283950Y0049188D03*
X0293950Y0049188D03*
X0303950Y0049188D03*
X0313950Y0049188D03*
D25*
X0145000Y0177138D03*
X0135000Y0177138D03*
X0125000Y0177138D03*
X0115000Y0177138D03*
X0115000Y0187138D03*
X0125000Y0187138D03*
X0135000Y0187138D03*
X0145000Y0187138D03*
D26*
X0040000Y0037138D03*
D27*
X0050000Y0037138D03*
X0060000Y0037138D03*
D28*
X0093094Y0109201D03*
X0093094Y0113138D03*
X0093094Y0117075D03*
X0104906Y0117075D03*
X0104906Y0113138D03*
X0104906Y0109201D03*
D29*
X0099070Y0113148D03*
D30*
X0170618Y0139413D03*
X0175539Y0139413D03*
X0180461Y0139413D03*
X0185382Y0139413D03*
X0185382Y0148862D03*
X0180461Y0148862D03*
X0175539Y0148862D03*
X0170618Y0148862D03*
D31*
X0168677Y0103763D03*
X0168677Y0102070D03*
X0168677Y0100377D03*
X0168677Y0098684D03*
X0168677Y0096991D03*
X0168677Y0095298D03*
X0168677Y0093606D03*
X0168677Y0091913D03*
X0178323Y0091913D03*
X0178323Y0093606D03*
X0178323Y0095298D03*
X0178323Y0096991D03*
X0178323Y0098684D03*
X0178323Y0100377D03*
X0178323Y0102070D03*
X0178323Y0103763D03*
D32*
X0176039Y0103645D03*
X0174346Y0103645D03*
X0172654Y0103645D03*
X0170961Y0103645D03*
X0170961Y0092031D03*
X0172654Y0092031D03*
X0174346Y0092031D03*
X0176039Y0092031D03*
D33*
X0095638Y0211854D03*
X0038551Y0212248D03*
D34*
X0034614Y0250437D03*
X0095638Y0250437D03*
D35*
X0089339Y0211067D03*
X0089339Y0210673D03*
X0085008Y0210673D03*
X0085008Y0211067D03*
X0080677Y0211067D03*
X0080677Y0210673D03*
X0076346Y0210673D03*
X0076346Y0211067D03*
X0072016Y0211067D03*
X0072016Y0210673D03*
X0067685Y0210673D03*
X0067685Y0211067D03*
X0063354Y0211067D03*
X0063354Y0210673D03*
X0059024Y0210673D03*
X0059024Y0211067D03*
X0054693Y0211067D03*
X0054693Y0210673D03*
D36*
X0089000Y0219138D03*
X0138000Y0195138D03*
X0221000Y0239138D03*
M02*
